<?xml version="1.0" encoding="UTF-8"?>
<svg id="Calque_1" data-name="Calque 1" xmlns="http://www.w3.org/2000/svg" viewBox="0 0 500 500">
  <defs>
    <style>
      .cls-1 {
        fill: #fff;
      }
    </style>
  </defs>
  
  <path class="cls-1" d="M500,500c-166.67,0-333.33,0-500,0C0,333.33,0,166.67,0,0c166.67,0,333.33,0,500,0,0,166.67,0,333.33,0,500ZM249.63,145.15c-21.28,0-42.55-.01-63.83,.01-4.2,0-8.23,.27-11.1,4.22-16.48,22.73-33.09,45.36-49.57,68.09-3.58,4.94-3.16,8.37,1.18,12.83,38.59,39.65,77.19,79.29,115.81,118.92,5.35,5.49,9.34,5.39,14.77-.18,38.13-39.17,76.25-78.34,114.38-117.51,6.2-6.37,6.45-8.81,1.31-15.9-15.32-21.11-30.83-42.08-45.92-63.34-3.7-5.22-7.98-7.27-14.19-7.21-20.94,.2-41.89,.08-62.83,.07Z"/>
  <path class="cls-1" d="M218.05,231.65h62.93c-10.33,29.8-20.43,58.93-30.54,88.06-.61,.02-1.22,.04-1.83,.06-10.1-29.11-20.19-58.22-30.57-88.12Z"/>
  <path class="cls-1" d="M149.57,231.81c3.05-.33,4.46-.61,5.86-.61,13.96-.01,27.91,.1,41.87-.02,3.11-.03,4.66,.83,5.74,3.98,8.24,24,16.72,47.92,25.09,71.89,.46,1.32,.56,2.78,.83,4.17-.42,.28-.84,.56-1.26,.83-25.66-26.35-51.33-52.71-78.13-80.23Z"/>
  <path class="cls-1" d="M348.88,232.16c-26.27,27-51.78,53.2-77.29,79.41-.44-.29-.88-.59-1.31-.88,.3-1.39,.45-2.83,.91-4.16,8.3-23.8,16.58-47.6,25.06-71.34,.57-1.6,2.63-3.78,4.03-3.8,14.94-.27,29.9-.16,44.85-.12,.75,0,1.5,.34,3.75,.89Z"/>
  <path class="cls-1" d="M201.99,215.02h-54.51c11.13-16.47,21.5-31.81,32.73-48.42,7.54,16.77,14.43,32.08,21.78,48.42Z"/>
  <path class="cls-1" d="M250.33,167.95c8.6,15.32,17.2,30.63,26.36,46.95h-54.23c9.01-16.13,17.57-31.44,26.13-46.75,.58-.07,1.16-.13,1.75-.2Z"/>
  <path class="cls-1" d="M318.8,166.54c11.23,16.64,21.59,31.99,32.69,48.42h-54.23c7.14-16.05,13.98-31.44,21.54-48.42Z"/>
  <path class="cls-1" d="M195.06,161.65h39.1c-7.27,13.51-14.07,26.14-20.87,38.77-.53-.04-1.07-.08-1.6-.12-5.42-12.6-10.85-25.21-16.64-38.65Z"/>
  <path class="cls-1" d="M264.97,161.63h39.1c-5.73,13.29-11.21,26-16.69,38.7-.52,.04-1.04,.09-1.56,.13-6.8-12.66-13.59-25.31-20.85-38.83Z"/>
</svg>