<?xml version="1.0" encoding="UTF-8"?>
<svg id="Calque_1" data-name="Calque 1" xmlns="http://www.w3.org/2000/svg" viewBox="0 0 3117.24 1849.25">
  <defs>
    <style>
      .cls-1 {
        fill: #fecaca;
      }
    </style>
  </defs>
  <path class="cls-1" d="M616.22,20.54c19.92-6.46,39.89-12.8,59.75-19.45,5.89-1.97,10.59-1.34,15.72,2.48,20.92,15.58,42.14,30.74,63.22,46.1,7.08,5.16,7.59,7.56,3.66,15.53-24.19,49.02-48.38,98.04-72.57,147.06-3.44,6.97-7.21,8.3-13.99,4.73-48.96-25.78-97.9-51.59-146.84-77.41-5.5-2.9-6.96-6.04-5.07-11.84,8.67-26.7,17.49-53.36,26.16-80.06,1.51-4.64,5.26-6.14,9.26-7.44,20.23-6.58,40.48-13.13,60.72-19.69h-.02Zm-3.36,92.01c19.09,25.25,37.67,49.83,56.25,74.4,.57-.21,1.15-.42,1.72-.62,.63-30.83,1.25-61.65,1.89-93.18-20.15,6.53-39.48,12.8-59.87,19.41h0Zm-65.1,21.26c33.98,17.92,66.52,35.07,99.06,52.23,.31-.39,.63-.79,.94-1.18-.68-1.24-1.23-2.59-2.07-3.71-15.35-20.21-30.79-40.35-46.03-60.65-2-2.66-3.74-3-6.69-2.01-13.24,4.41-26.55,8.61-39.82,12.93-1.34,.43-2.58,1.14-5.39,2.39Zm189.71-61.13c-2.31,.17-3.13,.08-3.84,.31-14.23,4.57-28.49,9.08-42.62,13.95-1.33,.46-2.61,3.16-2.66,4.86-.75,25.19-1.29,50.39-1.84,75.59-.03,1.41,.27,2.82,.41,4.24,.51,.14,1.01,.29,1.52,.43,16.18-32.79,32.37-65.59,49.03-99.37h0Zm-145.01,28.98c-12.03-13.27-23.31-25.72-35.65-39.34-5.56,19.26-10.69,37.05-16.2,56.15,18.02-5.84,34.43-11.16,51.85-16.81Zm31.47-59.68c-.53,.24-1.07,.48-1.6,.73-3.42,17.2-6.84,34.41-10.44,52.53,17.71-5.74,34.07-11.04,51.59-16.72-13.74-12.69-26.65-24.61-39.55-36.53h0Zm64.7-22.47c-1.95,18.49-3.72,35.24-5.56,52.71l51.58-16.72c-15.62-12.21-30.21-23.62-46.03-35.98h0Zm-119.24,33.5c9.65,11,18.7,21.32,27.74,31.64,.52-.13,1.04-.25,1.56-.38,2.57-14.11,5.14-28.22,7.89-43.32-12.77,4.14-24.33,7.89-37.2,12.06h.01Zm66.5-21.59c11.08,10.62,21.44,20.57,31.81,30.51,.48-.2,.96-.4,1.44-.6,1.29-13.78,2.59-27.56,3.94-41.96l-37.19,12.06h0Z"/>
  <path class="cls-1" d="M1204.06,1585.35c18.48,9.85,36.91,19.8,55.49,29.47,5.51,2.87,8.32,6.69,9.14,13.03,3.33,25.87,7.16,51.67,10.76,77.5,1.21,8.68-.16,10.71-8.63,13.42-52.07,16.65-104.13,33.31-156.19,49.96-7.41,2.37-10.98,.58-13.12-6.78-15.46-53.13-30.9-106.26-46.33-159.4-1.73-5.97-.49-9.2,4.99-11.88,25.23-12.31,50.53-24.49,75.76-36.8,4.39-2.14,8.07-.48,11.78,1.49,18.79,9.98,37.56,19.99,56.34,29.99h.01Zm-68.53,61.51c-4.9,31.27-9.67,61.71-14.44,92.15,.55,.27,1.1,.54,1.64,.8,22.61-20.96,45.22-41.93,68.34-63.37-18.7-9.96-36.63-19.51-55.55-29.58h0Zm-60.53-32.05c10.72,36.89,20.98,72.22,31.25,107.54,.5-.05,1-.1,1.5-.14,.42-1.35,1.01-2.68,1.23-4.07,3.88-25.08,7.64-50.18,11.64-75.24,.53-3.29-.44-4.77-3.2-6.21-12.37-6.46-24.64-13.11-36.96-19.66-1.24-.66-2.61-1.07-5.46-2.21h0Zm175.76,93.98c-1.73-1.54-2.23-2.19-2.89-2.55-13.18-7.06-26.32-14.18-39.64-20.97-1.25-.64-4.09,.32-5.35,1.46-18.64,16.96-37.14,34.08-55.65,51.19-1.03,.96-1.85,2.15-2.76,3.24,.25,.46,.5,.93,.75,1.39,34.83-11.14,69.66-22.28,105.54-33.76h0Zm-121.59-84.17c1.19-17.87,2.31-34.63,3.53-52.97-17.72,9.38-34.08,18.05-51.64,27.35,16.72,8.9,31.94,17.01,48.11,25.62Zm64.79-18.83c-.54-.22-1.09-.43-1.63-.65-14.75,9.49-29.5,18.98-45.04,28.98,16.43,8.75,31.61,16.83,47.87,25.49-.42-18.71-.81-36.27-1.2-53.83h0Zm61.1,30.95c-14.65,11.44-27.93,21.81-41.77,32.62,16.34,8.7,31.43,16.74,47.86,25.49-2.07-19.72-4-38.14-6.09-58.11Zm-106.93-62.48c-1.21,14.59-2.35,28.26-3.48,41.94,.45,.29,.9,.57,1.36,.86,11.94-7.95,23.87-15.91,36.64-24.42-11.85-6.31-22.57-12.02-34.51-18.38h0Zm61.72,32.84c.05,15.35,.1,29.71,.15,44.08,.48,.21,.96,.41,1.43,.62,10.81-8.64,21.62-17.28,32.92-26.32-11.88-6.33-22.63-12.05-34.51-18.38h0Z"/>
  <path class="cls-1" d="M2009.21,95.16c19.77,6.91,39.5,13.94,59.34,20.65,5.89,1.99,9.25,5.34,11.02,11.49,7.24,25.05,14.96,49.97,22.46,74.95,2.52,8.39,1.47,10.61-6.48,14.58-48.91,24.4-97.82,48.81-146.74,73.22-6.96,3.47-10.76,2.25-14-4.7-23.39-50.14-46.76-100.3-70.11-150.46-2.63-5.64-1.89-9.02,3.12-12.5,23.05-16.02,46.2-31.92,69.25-47.94,4.01-2.79,7.9-1.71,11.87-.33,20.09,6.99,40.18,14.02,60.26,21.04h0Zm-58.33,71.25c-.07,31.65-.14,62.46-.2,93.27,.58,.18,1.17,.36,1.75,.54,19.14-24.17,38.29-48.34,57.87-73.06-20-6.99-39.18-13.69-59.41-20.76h-.01Zm-64.71-22.43c16.23,34.82,31.76,68.17,47.3,101.51,.49-.12,.98-.25,1.46-.37,.21-1.4,.59-2.81,.59-4.21,0-25.38-.11-50.76,.02-76.14,.02-3.33-1.17-4.65-4.11-5.65-13.21-4.49-26.35-9.2-39.53-13.79-1.33-.46-2.74-.66-5.73-1.35h0Zm188.04,66.06c-1.95-1.26-2.54-1.83-3.25-2.08-14.1-4.97-28.18-10-42.38-14.67-1.33-.44-3.99,.94-5.06,2.26-15.83,19.61-31.5,39.35-47.18,59.08-.88,1.1-1.49,2.41-2.23,3.62,.32,.42,.63,.84,.95,1.26,32.72-16.33,65.45-32.66,99.15-49.48h0Zm-133.01-64.61c-1.55-17.85-3-34.58-4.59-52.89-16.08,11.98-30.92,23.04-46.86,34.92,17.88,6.25,34.17,11.94,51.46,17.98h-.01Zm61.16-28.5l-1.71-.39c-13.13,11.63-26.26,23.26-40.09,35.52,17.57,6.14,33.81,11.81,51.2,17.89-3.27-18.42-6.33-35.72-9.4-53.01h0Zm65.1,21.24c-12.74,13.55-24.27,25.81-36.3,38.61,17.48,6.1,33.62,11.74,51.19,17.88-5.05-19.17-9.77-37.08-14.89-56.49h0Zm-115.21-45.43c1.03,14.6,1.99,28.29,2.96,41.98,.49,.21,.98,.43,1.47,.64,10.58-9.68,21.17-19.37,32.49-29.72-12.67-4.43-24.14-8.43-36.92-12.9h0Zm66.01,23.03c2.4,15.16,4.64,29.35,6.88,43.54,.5,.13,1.01,.26,1.51,.39,9.36-10.19,18.73-20.38,28.52-31.04-12.7-4.44-24.2-8.45-36.91-12.89h0Z"/>
  <path class="cls-1" d="M7.22,1263.98c-2.32-20.82-4.51-41.64-7.04-62.44-.75-6.17,.82-10.65,5.59-14.9,19.46-17.36,38.59-35.1,57.87-52.66,6.48-5.9,8.93-5.92,15.94-.46,43.15,33.55,86.31,67.1,129.46,100.66,6.14,4.77,6.68,8.73,1.82,14.66-35.1,42.77-70.22,85.53-105.35,128.28-3.95,4.8-7.31,5.6-12.62,2.59-24.41-13.86-48.75-27.86-73.17-41.72-4.24-2.41-4.96-6.39-5.43-10.56-2.38-21.14-4.73-42.29-7.08-63.43v-.02Zm89.47,21.8c28.57-13.62,56.38-26.88,84.19-40.14-.09-.6-.18-1.21-.27-1.81-30.07-6.81-60.14-13.62-90.9-20.59,2.35,21.05,4.6,41.25,6.97,62.55h0Zm7.75,68.04c24.39-29.69,47.73-58.11,71.08-86.54-.32-.39-.65-.77-.97-1.16-1.35,.42-2.79,.68-4.05,1.29-22.89,10.97-45.72,22.05-68.66,32.9-3.01,1.42-3.69,3.06-3.32,6.15,1.66,13.86,3.1,27.74,4.66,41.61,.16,1.4,.59,2.76,1.26,5.76h0Zm-21.74-198.13c-.3,2.3-.55,3.08-.47,3.82,1.62,14.86,3.17,29.73,5.09,44.56,.18,1.39,2.57,3.2,4.22,3.59,24.53,5.8,49.1,11.39,73.67,17,1.37,.31,2.82,.31,4.23,.45,.24-.47,.49-.94,.73-1.4-28.87-22.45-57.74-44.89-87.48-68.01h0Zm-.76,147.87c-15.42,9.11-29.88,17.66-45.71,27.01,17.75,9.32,34.14,17.92,51.75,27.16-2.1-18.83-4.01-35.97-6.04-54.17h0Zm-52.14-42.82c.13,.57,.26,1.14,.39,1.71,16.17,6.81,32.33,13.62,49.36,20.79-2.06-18.5-3.97-35.59-6.01-53.9-15.2,10.91-29.47,21.15-43.74,31.4Zm-8.99-67.89c17.72,5.63,33.77,10.72,50.51,16.04-2.05-18.4-3.95-35.39-6.01-53.89-15.1,12.85-29.21,24.84-44.5,37.85h0Zm8.85,123.53c12.72-7.24,24.65-14.03,36.57-20.82-.02-.53-.04-1.07-.06-1.6-13.31-5.36-26.61-10.71-40.85-16.44,1.49,13.34,2.83,25.41,4.33,38.86h0Zm-7.77-69.48c12.63-8.71,24.46-16.87,36.28-25.03-.1-.51-.2-1.02-.3-1.53-13.24-4.04-26.47-8.08-40.32-12.3,1.49,13.37,2.84,25.48,4.33,38.86h.01Z"/>
  <path class="cls-1" d="M3069.37,304.78c-14.19,15.4-28.48,30.72-42.52,46.25-4.17,4.61-8.57,6.36-14.92,5.55-25.87-3.31-51.8-6.12-77.7-9.16-8.7-1.02-10.32-2.86-10.81-11.73-2.97-54.58-5.93-109.17-8.9-163.75-.42-7.77,2.21-10.77,9.87-10.98,55.31-1.55,110.62-3.07,165.93-4.58,6.22-.17,9.03,1.84,10.23,7.83,5.55,27.52,10.94,55.07,16.48,82.6,.96,4.78-1.57,7.93-4.42,11.02-14.4,15.66-28.83,31.3-43.25,46.94h.01Zm-42.21-81.83c-29.02-12.64-57.27-24.94-85.52-37.24-.4,.46-.8,.93-1.19,1.39,14.58,27.17,29.15,54.34,44.06,82.13,14.35-15.58,28.13-30.52,42.65-46.28h0Zm46.3-50.47c-38.4,1.06-75.18,2.07-111.95,3.08-.08,.5-.16,.99-.24,1.49,1.21,.75,2.34,1.66,3.63,2.21,23.29,10.09,46.63,20.06,69.86,30.27,3.05,1.34,4.73,.78,6.82-1.53,9.37-10.34,18.91-20.53,28.36-30.8,.95-1.03,1.69-2.26,3.52-4.72Zm-135.32,146.33c1.93-1.28,2.69-1.6,3.2-2.15,10.16-10.97,20.37-21.89,30.3-33.06,.93-1.05,.73-4.04-.06-5.54-11.71-22.32-23.6-44.54-35.48-66.77-.66-1.24-1.62-2.33-2.44-3.49-.51,.12-1.02,.25-1.54,.37,1.99,36.52,3.97,73.03,6.02,110.65h0Zm112.14-96.41c16.99,5.67,32.93,10.98,50.37,16.8-4.61-19.51-8.86-37.53-13.43-56.88-12.84,13.93-24.53,26.61-36.94,40.08Zm1.86,67.44c.35-.47,.69-.94,1.04-1.42-5.46-16.67-10.92-33.34-16.67-50.9-12.61,13.69-24.27,26.33-36.75,39.88,18.2,4.32,35.29,8.38,52.38,12.43h0Zm-45.36,51.32c-7.37-17.07-14.05-32.53-21.01-48.65-12.54,13.61-24.13,26.19-36.75,39.88,19.6,2.98,37.91,5.76,57.76,8.78h0Zm87.45-87.7c-13.81-4.86-26.75-9.41-39.7-13.96-.39,.36-.78,.73-1.17,1.09,4.68,13.56,9.36,27.12,14.37,41.62,9.1-9.87,17.33-18.8,26.5-28.75h0Zm-47.36,51.43c-14.86-3.82-28.78-7.4-42.69-10.98-.32,.41-.64,.82-.96,1.23,5.63,12.64,11.26,25.28,17.15,38.5,9.12-9.9,17.37-18.85,26.5-28.75h0Z"/>
  <path class="cls-1" d="M2613.58,1828.84c-19.94,6.42-39.91,12.72-59.78,19.33-5.9,1.96-10.59,1.32-15.72-2.51-20.89-15.62-42.08-30.82-63.13-46.22-7.07-5.17-7.58-7.57-3.63-15.53,24.29-48.97,48.58-97.94,72.86-146.91,3.46-6.97,7.22-8.29,14-4.7,48.9,25.88,97.8,51.79,146.68,77.7,5.49,2.91,6.95,6.05,5.05,11.85-8.72,26.69-17.59,53.32-26.32,80.01-1.52,4.64-5.27,6.13-9.27,7.42-20.24,6.54-40.5,13.05-60.75,19.57h0Zm3.55-92.02c-19.04-25.29-37.57-49.9-56.1-74.51-.57,.21-1.15,.41-1.72,.62-.69,30.83-1.38,61.65-2.08,93.18,20.16-6.49,39.51-12.72,59.91-19.29h-.01Zm65.14-21.14c-33.95-17.99-66.45-35.21-98.96-52.43-.31,.39-.63,.79-.94,1.18,.68,1.24,1.22,2.59,2.07,3.71,15.31,20.24,30.71,40.42,45.91,60.74,2,2.67,3.73,3,6.68,2.03,13.25-4.39,26.57-8.56,39.85-12.85,1.34-.43,2.59-1.13,5.39-2.38h0Zm-189.83,60.75c2.31-.17,3.13-.07,3.84-.3,14.24-4.54,28.51-9.03,42.65-13.86,1.33-.45,2.62-3.16,2.67-4.85,.8-25.19,1.39-50.39,1.99-75.58,.03-1.41-.26-2.82-.4-4.24-.51-.14-1.01-.29-1.52-.43-16.25,32.76-32.5,65.53-49.23,99.27h0Zm145.07-28.71c12,13.3,23.25,25.77,35.57,39.41,5.6-19.25,10.76-37.03,16.31-56.12-18.03,5.81-34.45,11.09-51.88,16.7h0Zm-31.59,59.63c.53-.24,1.07-.48,1.6-.72,3.45-17.2,6.91-34.4,10.55-52.51-17.72,5.7-34.09,10.97-51.62,16.62,13.72,12.72,26.6,24.67,39.48,36.61h-.01Zm-64.74,22.33c1.99-18.49,3.79-35.23,5.66-52.69-17.62,5.67-33.9,10.91-51.62,16.62,15.6,12.24,30.16,23.68,45.96,36.08h0Zm119.29-33.28c-9.63-11.02-18.65-21.36-27.68-31.69-.52,.13-1.04,.25-1.56,.38-2.6,14.11-5.2,28.21-7.98,43.3,12.78-4.11,24.34-7.84,37.22-11.98h0Zm-66.54,21.44c-11.06-10.65-21.4-20.61-31.75-30.57-.48,.2-.96,.4-1.44,.6-1.32,13.78-2.64,27.55-4.02,41.96,12.81-4.12,24.4-7.86,37.22-11.98h-.01Z"/>
  <path class="cls-1" d="M1182.07,815.43c19.77,6.91,39.5,13.94,59.34,20.65,5.89,1.99,9.25,5.34,11.02,11.49,7.24,25.05,14.96,49.97,22.46,74.95,2.52,8.39,1.47,10.61-6.48,14.58-48.91,24.4-97.82,48.81-146.74,73.22-6.96,3.47-10.76,2.25-14-4.7-23.39-50.14-46.76-100.3-70.11-150.46-2.63-5.64-1.89-9.02,3.12-12.5,23.05-16.02,46.2-31.92,69.25-47.94,4.01-2.79,7.9-1.71,11.87-.33,20.09,6.99,40.18,14.02,60.26,21.04h0Zm-58.33,71.25c-.07,31.65-.14,62.46-.2,93.27,.58,.18,1.17,.36,1.75,.54,19.14-24.17,38.29-48.34,57.87-73.06-20-6.99-39.18-13.69-59.41-20.76h-.01Zm-64.71-22.43c16.23,34.82,31.76,68.17,47.3,101.51,.49-.12,.98-.25,1.46-.37,.21-1.4,.59-2.81,.59-4.21,0-25.38-.11-50.76,.02-76.14,.02-3.33-1.17-4.65-4.11-5.65-13.21-4.49-26.35-9.2-39.53-13.79-1.33-.46-2.74-.66-5.73-1.35h0Zm188.04,66.06c-1.95-1.26-2.54-1.83-3.25-2.08-14.1-4.97-28.18-10-42.38-14.67-1.33-.44-3.99,.94-5.06,2.26-15.83,19.61-31.5,39.35-47.18,59.08-.88,1.1-1.49,2.41-2.23,3.62,.32,.42,.63,.84,.95,1.26,32.72-16.33,65.45-32.66,99.15-49.48h0Zm-133.01-64.61c-1.55-17.85-3-34.58-4.59-52.89-16.08,11.98-30.92,23.04-46.86,34.92,17.88,6.25,34.17,11.94,51.46,17.98h-.01Zm61.16-28.5l-1.71-.39c-13.13,11.63-26.26,23.26-40.09,35.52,17.57,6.14,33.81,11.81,51.2,17.89-3.27-18.42-6.33-35.72-9.4-53.01h0Zm65.1,21.24c-12.74,13.55-24.27,25.81-36.3,38.61,17.48,6.1,33.62,11.74,51.19,17.88-5.05-19.17-9.77-37.08-14.89-56.49h0Zm-115.21-45.43c1.03,14.6,1.99,28.29,2.96,41.98,.49,.21,.98,.43,1.47,.64,10.58-9.68,21.17-19.37,32.49-29.72-12.67-4.43-24.14-8.43-36.92-12.9h0Zm66.01,23.03c2.4,15.16,4.64,29.35,6.88,43.54,.5,.13,1.01,.26,1.51,.39,9.36-10.19,18.73-20.38,28.52-31.04-12.7-4.44-24.2-8.45-36.91-12.89h0Z"/>
  <path class="cls-1" d="M2423.98,878.59c19.77,6.91,39.5,13.94,59.34,20.65,5.89,1.99,9.25,5.34,11.02,11.49,7.24,25.05,14.96,49.97,22.46,74.95,2.52,8.39,1.47,10.61-6.48,14.58-48.91,24.4-97.82,48.81-146.74,73.22-6.96,3.47-10.76,2.25-14-4.7-23.39-50.14-46.76-100.3-70.11-150.46-2.63-5.64-1.89-9.02,3.12-12.5,23.05-16.02,46.2-31.92,69.25-47.94,4.01-2.79,7.9-1.71,11.87-.33,20.09,6.99,40.18,14.02,60.26,21.04h0Zm-58.33,71.25c-.07,31.65-.14,62.46-.2,93.27,.58,.18,1.17,.36,1.75,.54,19.14-24.17,38.29-48.34,57.87-73.06-20-6.99-39.18-13.69-59.41-20.76h-.01Zm-64.71-22.43c16.23,34.82,31.76,68.17,47.3,101.51,.49-.12,.98-.25,1.46-.37,.21-1.4,.59-2.81,.59-4.21,0-25.38-.11-50.76,.02-76.14,.02-3.33-1.17-4.65-4.11-5.65-13.21-4.49-26.35-9.2-39.53-13.79-1.33-.46-2.74-.66-5.73-1.35h0Zm188.04,66.06c-1.95-1.26-2.54-1.83-3.25-2.08-14.1-4.97-28.18-10-42.38-14.67-1.33-.44-3.99,.94-5.06,2.26-15.83,19.61-31.5,39.35-47.18,59.08-.88,1.1-1.49,2.41-2.23,3.62,.32,.42,.63,.84,.95,1.26,32.72-16.33,65.45-32.66,99.15-49.48h0Zm-133.01-64.61c-1.55-17.85-3-34.58-4.59-52.89-16.08,11.98-30.92,23.04-46.86,34.92,17.88,6.25,34.17,11.94,51.46,17.98h-.01Zm61.16-28.5l-1.71-.39c-13.13,11.63-26.26,23.26-40.09,35.52,17.57,6.14,33.81,11.81,51.2,17.89-3.27-18.42-6.33-35.72-9.4-53.01h0Zm65.1,21.24c-12.74,13.55-24.27,25.81-36.3,38.61,17.48,6.1,33.62,11.74,51.19,17.88-5.05-19.17-9.77-37.08-14.89-56.49h0Zm-115.21-45.43c1.03,14.6,1.99,28.29,2.96,41.98,.49,.21,.98,.43,1.47,.64,10.58-9.68,21.17-19.37,32.49-29.72-12.67-4.43-24.14-8.43-36.92-12.9h0Zm66.01,23.03c2.4,15.16,4.64,29.35,6.88,43.54,.5,.13,1.01,.26,1.51,.39,9.36-10.19,18.73-20.38,28.52-31.04-12.7-4.44-24.2-8.45-36.91-12.89h0Z"/>
</svg>