<?xml version="1.0" encoding="UTF-8"?>
<svg id="Calque_1" data-name="Calque 1" xmlns="http://www.w3.org/2000/svg" viewBox="0 0 500 500">
    <path d="M249.63,145.16c20.94,0,41.89,.13,62.83-.07,6.22-.06,10.49,1.99,14.19,7.21,15.09,21.27,30.61,42.24,45.92,63.34,5.15,7.09,4.89,9.53-1.31,15.9-38.13,39.17-76.25,78.34-114.38,117.51-5.42,5.57-9.42,5.67-14.77,.18-38.62-39.62-77.22-79.27-115.81-118.92-4.34-4.46-4.76-7.89-1.18-12.83,16.48-22.73,33.09-45.36,49.57-68.09,2.87-3.95,6.9-4.22,11.1-4.22,21.28-.03,42.55-.01,63.83,0Zm-31.57,86.5c10.37,29.91,20.47,59.01,30.57,88.12,.61-.02,1.22-.04,1.83-.06,10.1-29.13,20.2-58.26,30.54-88.06h-62.93Zm-68.49,.16c26.8,27.52,52.47,53.88,78.13,80.23,.42-.28,.84-.56,1.26-.83-.27-1.39-.37-2.84-.83-4.17-8.37-23.96-16.85-47.88-25.09-71.89-1.08-3.15-2.63-4-5.74-3.98-13.96,.12-27.91,0-41.87,.02-1.4,0-2.81,.28-5.86,.61Zm199.31,.35c-2.25-.55-3-.89-3.75-.89-14.95-.04-29.9-.14-44.85,.12-1.4,.03-3.46,2.2-4.03,3.8-8.48,23.73-16.76,47.54-25.06,71.34-.46,1.33-.62,2.77-.91,4.16,.44,.29,.88,.59,1.31,.88,25.51-26.21,51.01-52.41,77.29-79.41Zm-146.88-17.14c-7.35-16.34-14.24-31.65-21.78-48.42-11.23,16.61-21.59,31.95-32.73,48.42h54.51Zm48.34-47.07c-.58,.07-1.16,.13-1.75,.2-8.56,15.31-17.12,30.62-26.13,46.75h54.23c-9.16-16.31-17.76-31.63-26.36-46.95Zm68.47-1.41c-7.56,16.99-14.4,32.37-21.54,48.42h54.23c-11.09-16.43-21.45-31.78-32.69-48.42Zm-123.75-4.89c5.79,13.44,11.21,26.05,16.64,38.65,.53,.04,1.07,.08,1.6,.12,6.8-12.63,13.6-25.26,20.87-38.77h-39.1Zm69.91-.03c7.26,13.52,14.06,26.18,20.85,38.83,.52-.04,1.04-.09,1.56-.13,5.48-12.71,10.96-25.42,16.69-38.7h-39.1Z"/>
</svg>